<svg xmlns="http://www.w3.org/2000/svg" width="98" height="59" viewBox="0 0 98 59" fill="none">
<path d="M2.32309 26.7561C-1.4904 17.6991 9.95552 11.5228 18.3632 12.9851C34.4247 15.7784 11.1649 52.9678 7.33074 56.802C6.04135 58.0914 7.13643 52.6814 7.48723 52.1073C9.22152 49.2694 13.7942 44.3114 17.5025 45.6913C22.3794 47.5059 23.718 54.9241 29.0827 54.9241" stroke="white" stroke-width="3" stroke-linecap="round"/>
<path d="M41.7585 12.672C34.4009 20.8471 26.2661 32.1582 26.2661 43.5003C26.2661 54.3769 37.5901 48.5162 42.4627 42.7961C49.7424 34.2505 56.6765 19.1309 46.2967 10.4811C41.4686 6.45769 34.7165 4.91428 34.7165 12.672" stroke="white" stroke-width="3" stroke-linecap="round"/>
<path d="M62.8844 8.44681C54.7902 15.8665 48.8758 28.1305 51.9302 39.4317C54.8585 50.2664 70.7547 39.7139 74.1516 35.2064C80.8756 26.2842 77.136 16.3923 68.518 10.1682C60.5742 4.431 56.0746 13.1053 51.6172 18.3056" stroke="white" stroke-width="3" stroke-linecap="round"/>
<path d="M85.419 8.4467C83.8831 11.9408 72.6754 32.135 80.6461 35.9105C88.0349 39.4105 93.3475 37.5172 95.2778 29.2598C96.8442 22.559 97.7534 10.2104 91.6003 5.00394C85.5653 -0.102578 75.217 2.62359 71.335 8.4467" stroke="white" stroke-width="3" stroke-linecap="round"/>
</svg>