<svg width="76" height="76" viewBox="0 0 76 76" fill="none" xmlns="http://www.w3.org/2000/svg">
<g clip-path="url(#clip0_22_989)">
<g filter="url(#filter0_d_22_989)">
<path d="M71.375 0.5H4.625C3.53098 0.5 2.48177 0.934597 1.70818 1.70818C0.934597 2.48177 0.5 3.53098 0.5 4.625V71.375C0.5 72.469 0.934597 73.5182 1.70818 74.2918C2.48177 75.0654 3.53098 75.5 4.625 75.5H40.55V46.4375H30.8V35.1875H40.55V26.75C40.348 24.7691 40.5819 22.768 41.2352 20.887C41.8885 19.0061 42.9454 17.2908 44.3317 15.8615C45.7181 14.4323 47.4004 13.3237 49.2606 12.6134C51.1208 11.9031 53.1138 11.6084 55.1 11.75C58.0188 11.7298 60.9362 11.8801 63.8375 12.2V22.325H57.875C53.15 22.325 52.25 24.575 52.25 27.8375V35.075H63.5L62.0375 46.325H52.25V75.5H71.375C71.9167 75.5 72.4531 75.3933 72.9536 75.186C73.454 74.9787 73.9088 74.6748 74.2918 74.2918C74.6748 73.9088 74.9787 73.454 75.186 72.9536C75.3933 72.4531 75.5 71.9167 75.5 71.375V4.625C75.5 4.0833 75.3933 3.5469 75.186 3.04643C74.9787 2.54596 74.6748 2.09123 74.2918 1.70818C73.9088 1.32514 73.454 1.0213 72.9536 0.813997C72.4531 0.606697 71.9167 0.5 71.375 0.5Z" fill="#FFBF82"/>
</g>
</g>
<defs>
<filter id="filter0_d_22_989" x="0.5" y="0.5" width="79" height="79" filterUnits="userSpaceOnUse" color-interpolation-filters="sRGB">
<feFlood flood-opacity="0" result="BackgroundImageFix"/>
<feColorMatrix in="SourceAlpha" type="matrix" values="0 0 0 0 0 0 0 0 0 0 0 0 0 0 0 0 0 0 127 0" result="hardAlpha"/>
<feOffset dx="4" dy="4"/>
<feComposite in2="hardAlpha" operator="out"/>
<feColorMatrix type="matrix" values="0 0 0 0 0 0 0 0 0 0 0 0 0 0 0 0 0 0 0.25 0"/>
<feBlend mode="normal" in2="BackgroundImageFix" result="effect1_dropShadow_22_989"/>
<feBlend mode="normal" in="SourceGraphic" in2="effect1_dropShadow_22_989" result="shape"/>
</filter>
<clipPath id="clip0_22_989">
<rect width="76" height="76" fill="white"/>
</clipPath>
</defs>
</svg>
