<svg width="76" height="76" viewBox="0 0 76 76" fill="none" xmlns="http://www.w3.org/2000/svg">
<path d="M71.3 4.62125C68.55 1.87125 65.2413 0.497503 61.3738 0.500003H14.5475C10.6775 0.500003 7.36875 1.87375 4.62125 4.62125C1.87125 7.37125 0.497503 10.68 0.500003 14.5475V61.3737C0.500003 65.2438 1.87375 68.5525 4.62125 71.3C7.37125 74.05 10.68 75.4238 14.5475 75.4212H25.475C26.1875 75.4212 26.7238 75.3962 27.0838 75.3463C27.503 75.2634 27.8814 75.0398 28.1563 74.7125C28.5138 74.3375 28.6925 73.7937 28.6925 73.0812L28.6663 69.7625C28.6513 67.6475 28.6438 65.9725 28.6438 64.7375L27.5188 64.9325C26.8063 65.0625 25.905 65.12 24.815 65.105C23.6776 65.0833 22.5439 64.9691 21.425 64.7637C20.2329 64.5475 19.1109 64.0457 18.155 63.3013C17.1517 62.5425 16.4034 61.496 16.01 60.3013L15.5225 59.1763C15.11 58.2897 14.5939 57.4551 13.985 56.69C13.285 55.78 12.5775 55.1625 11.8625 54.8375L11.525 54.5938C11.2906 54.424 11.0767 54.2277 10.8875 54.0088C10.7068 53.8054 10.5587 53.5751 10.4488 53.3263C10.3513 53.0963 10.4325 52.9088 10.6925 52.7638C10.9525 52.6138 11.425 52.54 12.11 52.5425L13.085 52.6925C13.735 52.82 14.5388 53.2088 15.4963 53.8588C16.464 54.5185 17.2724 55.3858 17.8625 56.3975C18.6125 57.7275 19.515 58.7438 20.57 59.4463C21.6275 60.1463 22.6925 60.4963 23.765 60.4963C24.8375 60.4963 25.765 60.415 26.5475 60.2525C27.3053 60.0954 28.0418 59.8487 28.7413 59.5175C29.0338 57.34 29.83 55.665 31.13 54.4925C29.4441 54.3259 27.7731 54.0325 26.1313 53.615C24.529 53.1754 22.9883 52.5367 21.545 51.7138C20.0347 50.8915 18.7006 49.7804 17.6188 48.4438C16.5788 47.1438 15.725 45.4375 15.0575 43.325C14.3925 41.21 14.06 38.77 14.06 36.005C14.06 32.0725 15.3438 28.7225 17.9113 25.955C16.7113 22.9975 16.825 19.6825 18.2525 16.01C19.1975 15.715 20.5963 15.9338 22.4488 16.6663C24.3013 17.3988 25.6588 18.0238 26.5213 18.5413C27.3838 19.0663 28.075 19.5063 28.595 19.8613C31.6434 19.0113 34.7941 18.5848 37.9588 18.5938C41.1788 18.5938 44.3013 19.0163 47.3263 19.8613L49.1788 18.6913C50.6037 17.8358 52.1067 17.1175 53.6675 16.5463C55.39 15.8963 56.7075 15.7175 57.62 16.01C59.0825 19.685 59.2113 23.0013 58.0063 25.9588C60.5763 28.7213 61.8613 32.0713 61.8613 36.0088C61.8613 38.7738 61.5275 41.22 60.86 43.3475C60.195 45.4775 59.3338 47.185 58.2763 48.47C57.1722 49.7864 55.8332 50.8863 54.3275 51.7138C52.7525 52.5913 51.2238 53.225 49.7413 53.615C48.0995 54.0338 46.4285 54.3284 44.7425 54.4963C46.43 55.9588 47.275 58.2663 47.2775 61.4188V73.0812C47.2775 73.6312 47.3588 74.0775 47.5213 74.42C47.5971 74.5844 47.7052 74.7319 47.8392 74.8536C47.9732 74.9754 48.1304 75.069 48.3013 75.1287C48.6588 75.2587 48.9763 75.3388 49.2538 75.3688C49.5313 75.4037 49.9288 75.42 50.4463 75.4175H61.3738C65.2438 75.4175 68.5525 74.0437 71.3 71.2962C74.0475 68.5488 75.4213 65.24 75.4213 61.37V14.5475C75.4213 10.6775 74.05 7.36875 71.3 4.62125Z" fill="#FFBF82"/>
</svg>
