<svg width="76" height="76" viewBox="0 0 76 76" fill="none" xmlns="http://www.w3.org/2000/svg">
<path d="M54.6667 0.5C60.192 0.5 65.4911 2.69493 69.3981 6.60194C73.3051 10.5089 75.5 15.808 75.5 21.3333V54.6667C75.5 60.192 73.3051 65.4911 69.3981 69.3981C65.4911 73.3051 60.192 75.5 54.6667 75.5H21.3333C15.808 75.5 10.5089 73.3051 6.60194 69.3981C2.69493 65.4911 0.5 60.192 0.5 54.6667V21.3333C0.5 15.808 2.69493 10.5089 6.60194 6.60194C10.5089 2.69493 15.808 0.5 21.3333 0.5H54.6667ZM38 21.3333C33.5797 21.3333 29.3405 23.0893 26.2149 26.2149C23.0893 29.3405 21.3333 33.5797 21.3333 38C21.3333 42.4203 23.0893 46.6595 26.2149 49.7851C29.3405 52.9107 33.5797 54.6667 38 54.6667C42.4203 54.6667 46.6595 52.9107 49.7851 49.7851C52.9107 46.6595 54.6667 42.4203 54.6667 38C54.6667 33.5797 52.9107 29.3405 49.7851 26.2149C46.6595 23.0893 42.4203 21.3333 38 21.3333ZM38 29.6667C40.2101 29.6667 42.3298 30.5446 43.8926 32.1074C45.4554 33.6702 46.3333 35.7899 46.3333 38C46.3333 40.2101 45.4554 42.3298 43.8926 43.8926C42.3298 45.4554 40.2101 46.3333 38 46.3333C35.7899 46.3333 33.6702 45.4554 32.1074 43.8926C30.5446 42.3298 29.6667 40.2101 29.6667 38C29.6667 35.7899 30.5446 33.6702 32.1074 32.1074C33.6702 30.5446 35.7899 29.6667 38 29.6667ZM56.75 15.0833C55.6449 15.0833 54.5851 15.5223 53.8037 16.3037C53.0223 17.0851 52.5833 18.1449 52.5833 19.25C52.5833 20.3551 53.0223 21.4149 53.8037 22.1963C54.5851 22.9777 55.6449 23.4167 56.75 23.4167C57.8551 23.4167 58.9149 22.9777 59.6963 22.1963C60.4777 21.4149 60.9167 20.3551 60.9167 19.25C60.9167 18.1449 60.4777 17.0851 59.6963 16.3037C58.9149 15.5223 57.8551 15.0833 56.75 15.0833Z" fill="#FFBF82"/>
</svg>
