<svg xmlns="http://www.w3.org/2000/svg" width="46" height="280" viewBox="0 0 46 560" fill="none">
  <path d="M20 556.312C20 557.969 21.3431 559.312 23 559.312C24.6569 559.312 26 557.969 26 556.312H20ZM25.1213 0.878619C23.9497 -0.292954 22.0503 -0.292954 20.8787 0.878619L1.7868 19.9705C0.615224 21.1421 0.615224 23.0416 1.7868 24.2131C2.95837 25.3847 4.85786 25.3847 6.02944 24.2131L23 7.24258L39.9706 24.2131C41.1421 25.3847 43.0416 25.3847 44.2132 24.2131C45.3848 23.0416 45.3848 21.1421 44.2132 19.9705L25.1213 0.878619ZM26 556.312L26 2.99994H20L20 556.312H26Z" fill="white"/>
</svg>