<svg width="76" height="76" viewBox="0 0 76 76" fill="none" xmlns="http://www.w3.org/2000/svg">
<g id="mdi:linkedin" clip-path="url(#clip0_22_977)">
<path id="Vector" d="M66.9167 0.25C69.1268 0.25 71.2464 1.12797 72.8092 2.69078C74.372 4.25358 75.25 6.3732 75.25 8.58333V66.9167C75.25 69.1268 74.372 71.2464 72.8092 72.8092C71.2464 74.372 69.1268 75.25 66.9167 75.25H8.58333C6.3732 75.25 4.25358 74.372 2.69078 72.8092C1.12797 71.2464 0.25 69.1268 0.25 66.9167V8.58333C0.25 6.3732 1.12797 4.25358 2.69078 2.69078C4.25358 1.12797 6.3732 0.25 8.58333 0.25H66.9167ZM64.8333 64.8333V42.75C64.8333 39.1475 63.4022 35.6925 60.8549 33.1451C58.3075 30.5978 54.8525 29.1667 51.25 29.1667C47.7083 29.1667 43.5833 31.3333 41.5833 34.5833V29.9583H29.9583V64.8333H41.5833V44.2917C41.5833 41.0833 44.1667 38.4583 47.375 38.4583C48.9221 38.4583 50.4058 39.0729 51.4998 40.1669C52.5938 41.2608 53.2083 42.7446 53.2083 44.2917V64.8333H64.8333ZM16.4167 23.4167C18.2732 23.4167 20.0537 22.6792 21.3664 21.3664C22.6792 20.0537 23.4167 18.2732 23.4167 16.4167C23.4167 12.5417 20.2917 9.375 16.4167 9.375C14.5491 9.375 12.758 10.1169 11.4375 11.4375C10.1169 12.758 9.375 14.5491 9.375 16.4167C9.375 20.2917 12.5417 23.4167 16.4167 23.4167ZM22.2083 64.8333V29.9583H10.6667V64.8333H22.2083Z" fill="#131313"/>
</g>
<defs>
<clipPath id="clip0_22_977">
<rect width="76" height="76" fill="white"/>
</clipPath>
</defs>
</svg>
